<mxfile host="app.diagrams.net" modified="2024-05-24T13:13:35.293Z" agent="Mozilla/5.0 (Windows NT 10.0; Win64; x64; rv:126.0) Gecko/20100101 Firefox/126.0" version="24.4.8" etag="0XP1KJ8u2H-yjDEQy2xD" type="github">
  <diagram name="Strona-1" id="TVoqLBGjjWDmQXNZdC6m">
    <mxGraphModel>
      <root>
        <mxCell id="0" />
        <mxCell id="1" parent="0" />
      </root>
    </mxGraphModel>
  </diagram>
</mxfile>
